<?xml version="1.0" encoding="UTF-8" standalone="no"?>
<svg
   xmlns:dc="http://purl.org/dc/elements/1.1/"
   xmlns:cc="http://creativecommons.org/ns#"
   xmlns:rdf="http://www.w3.org/1999/02/22-rdf-syntax-ns#"
   xmlns:svg="http://www.w3.org/2000/svg"
   xmlns="http://www.w3.org/2000/svg"
   xmlns:sodipodi="http://sodipodi.sourceforge.net/DTD/sodipodi-0.dtd"
   xmlns:inkscape="http://www.inkscape.org/namespaces/inkscape"
   height="26.4"
   width="26.4"
   style="fill:#ffffff"
   viewBox="0 0 26.399999 26.4"
   version="1.1"
   id="svg14"
   sodipodi:docname="manual.svg"
   inkscape:version="1.0 (4035a4fb49, 2020-05-01)">
  <metadata
     id="metadata20">
    <rdf:RDF>
      <cc:Work
         rdf:about="">
        <dc:format>image/svg+xml</dc:format>
        <dc:type
           rdf:resource="http://purl.org/dc/dcmitype/StillImage" />
        <dc:title />
      </cc:Work>
    </rdf:RDF>
  </metadata>
  <defs
     id="defs18" />
  <sodipodi:namedview
     inkscape:document-rotation="0"
     pagecolor="#ffffff"
     bordercolor="#666666"
     borderopacity="1"
     objecttolerance="10"
     gridtolerance="10"
     guidetolerance="10"
     inkscape:pageopacity="0"
     inkscape:pageshadow="2"
     inkscape:window-width="1920"
     inkscape:window-height="1017"
     id="namedview16"
     showgrid="false"
     inkscape:zoom="25.31617"
     inkscape:cx="20.355651"
     inkscape:cy="12.46732"
     inkscape:window-x="-8"
     inkscape:window-y="-8"
     inkscape:window-maximized="1"
     inkscape:current-layer="svg14" />
  <ellipse
     ry="2.4166467"
     rx="2.3607845"
     cy="3.966207"
     cx="14.579999"
     id="path914"
     style="fill:none;stroke:#000000;stroke-width:0.473;stroke-miterlimit:4;stroke-dasharray:none" />
  <path
     sodipodi:nodetypes="ccsccsccssccccssccsc"
     id="path918"
     d="m 7.2620694,9.7758624 -2.030203,2.3247116 c 0,0 -1.433246,1.027012 -0.762901,2.59115 0.670345,1.564138 3.575172,3.686896 3.575172,3.686896 l -2.904827,3.24 c 0,0 -1.005517,1.564138 0,2.122759 1.005517,0.558621 1.719814,-0.07222 1.719814,-0.07222 L 11.61931,19.60759 c 0,0 0.877954,-0.45211 0.617872,-1.22277 -0.183949,-0.545066 0,0 -0.710428,-0.953044 -0.661011,-0.886752 -2.5888226,-2.5166 -2.5888226,-2.5166 l 2.9048266,-3.463448 2.011035,2.681379 3.463448,1.117237 c 0,0 0.670345,0.446897 1.228965,-0.111724 0.558621,-0.55862 0.492012,-1.570915 0.04511,-1.794363 -0.446896,-0.223448 -4.178907,-2.33943 -4.178907,-2.33943 L 12.184708,7.8573829 c 0,0 -0.264112,-0.3024492 -1.682639,-0.3160036 C 8.4787514,7.5220463 7.2620694,9.7758624 7.2620694,9.7758624 Z"
     style="fill:none;fill-opacity:1;stroke:#000000;stroke-width:0.473;stroke-linecap:butt;stroke-linejoin:miter;stroke-miterlimit:4;stroke-dasharray:none;stroke-opacity:1" />
  <path
     sodipodi:nodetypes="ccsscc"
     id="path920"
     d="m 9.2002984,21.750094 1.3017706,2.419012 c 0,0 0.663567,0.716623 1.110464,0.604899 0.446897,-0.111725 1.438859,-0.374673 1.327135,-1.268466 -0.111724,-0.893793 -1.675862,-3.6017 -1.675862,-3.6017 z"
     style="fill:none;stroke:#000000;stroke-width:0.473;stroke-linecap:butt;stroke-linejoin:miter;stroke-miterlimit:4;stroke-dasharray:none;stroke-opacity:1" />
  <path
     id="path833"
     d="m 14.412414,11.004827 h 7.597241 v 7.150343 h -7.597241 l 0.04475,-3.737507 v 0"
     style="fill:none;stroke:#000000;stroke-width:0.473;stroke-linecap:butt;stroke-linejoin:miter;stroke-opacity:1;stroke-miterlimit:4;stroke-dasharray:none" />
</svg>
